<svg width="16px" height="19px" viewBox="0 0 16 19" version="1.1" xmlns="http://www.w3.org/2000/svg" xmlns:xlink="http://www.w3.org/1999/xlink">
    <defs></defs>
    <g id="Page-1" stroke="none" stroke-width="1" fill="none" fill-rule="evenodd">
        <g id="Desktop-HD" transform="translate(-330.000000, -537.000000)" fill="#FF323B">
            <g id="Group-2" transform="translate(330.000000, 537.000000)">
                <polygon id="Fill-1" points="0 7.22935 7.67314286 18.90935 9.47571429 17.79185 1.80257143 6.11185"></polygon>
                <path d="M11.3415429,16.93785 L13.8075429,14.90535 L15.9006857,17.31035 C15.9006857,17.31035 15.9006857,17.31035 15.8981143,17.31035 L15.8929714,17.30285 C14.5326857,18.42535 12.4935429,18.26285 11.3415429,16.93785" id="Fill-2"></path>
                <path d="M11.727,12.5241 L11.7167143,12.5116 C11.7167143,12.5116 11.7167143,12.5116 11.7167143,12.5091 L13.8175714,14.9191 L11.3515714,16.9491 C10.197,15.6266 10.3641429,13.6441 11.727,12.5241" id="Fill-4"></path>
                <path d="M3.93351429,-0.00015 C2.30837143,0.72985 1.59865714,2.59985 2.35208571,4.17985 C3.10294286,5.75735 5.02894286,6.44735 6.65408571,5.71735 L3.93351429,-0.00015 Z" id="Fill-6"></path>
            </g>
        </g>
    </g>
</svg>